<?xml version="1.0" encoding="utf-8"?>
<!-- Generator: Adobe Illustrator 24.0.1, SVG Export Plug-In . SVG Version: 6.00 Build 0)  -->
<svg version="1.1" id="ombrellone" xmlns="http://www.w3.org/2000/svg" xmlns:xlink="http://www.w3.org/1999/xlink" x="0px" y="0px"
	 viewBox="0 0 288 560" style="enable-background:new 0 0 288 560;" xml:space="preserve">
<style type="text/css">
	.st0{stroke:#000000;stroke-miterlimit:10;}
	.st1{fill:#FFFFFF;stroke:#000000;stroke-miterlimit:10;}
</style>
<g id="neri">
	<path class="st0" d="M39.71,180.64l204.79,84.82c-3.3-9.37-7.23-23.99-7.26-42.21c-0.03-18.42,3.94-33.2,7.26-42.61L39.71,265.47
		c3.07-10.6,6.23-25.8,6.01-44.19C45.53,204.58,42.62,190.68,39.71,180.64z"/>
	<path class="st0" d="M184.8,120.67L99.97,325.46c9.37-3.3,23.99-7.23,42.21-7.26c18.42-0.03,33.2,3.94,42.61,7.26L99.97,120.68
		c10.6,3.07,25.8,6.23,44.19,6.01C160.85,126.49,174.75,123.58,184.8,120.67z"/>
</g>
<g id="bianchi">
	<path class="st1" d="M39.99,265.44l204.79-84.83c-8.96-4.29-22.08-11.85-34.98-24.71c-13.05-13.01-20.69-26.26-25-35.27
		L99.98,325.43c-5.33-9.67-13.84-22.65-27-35.5C61.03,278.26,49.15,270.49,39.99,265.44z"/>
	<path class="st1" d="M99.97,120.63l84.83,204.79c4.29-8.96,11.85-22.08,24.71-34.98c13.01-13.05,26.26-20.69,35.27-25L39.99,180.62
		c9.67-5.33,22.65-13.84,35.5-27C87.15,141.68,94.93,129.79,99.97,120.63z"/>
</g>
</svg>
