<?xml version="1.0" encoding="utf-8"?>
<!-- Generator: Adobe Illustrator 24.0.1, SVG Export Plug-In . SVG Version: 6.00 Build 0)  -->
<svg version="1.1" xmlns="http://www.w3.org/2000/svg" xmlns:xlink="http://www.w3.org/1999/xlink" x="0px" y="0px"
	 viewBox="0 0 1071 899" style="enable-background:new 0 0 1071 899;" xml:space="preserve">
<style type="text/css">
	.st0{fill:#FFFFFF;}
	.st1{fill:#231F20;}
	.st2{fill:none;stroke:#231F20;stroke-width:21;stroke-miterlimit:10;}
	.st3{fill:none;stroke:#231F20;stroke-width:8;stroke-miterlimit:10;}
	.st4{fill:#010101;stroke:#010101;stroke-miterlimit:10;}
	.st5{fill:#FFFFFF;stroke:#010101;stroke-miterlimit:10;}
	.st6{fill:none;}
</style>
<g id="chair">
	<rect x="71" y="55.5" class="st0" width="18.5" height="765.1"/>
	<rect x="146.5" y="55.5" class="st0" width="19" height="765.1"/>
	<rect x="222.5" y="55.5" class="st0" width="20" height="765"/>
	<rect x="299.5" y="55.5" class="st0" width="15.5" height="765"/>
	<rect x="65.8" y="55.5" width="5.2" height="765.1"/>
	<rect x="314.4" y="55.8" width="5.2" height="765.1"/>
	<rect x="741.3" y="55.5" class="st0" width="18.5" height="765.1"/>
	<rect x="816.8" y="55.5" class="st0" width="19" height="765.1"/>
	<rect x="892.8" y="55.5" class="st0" width="20" height="765"/>
	<rect x="969.8" y="55.5" class="st0" width="15.5" height="765"/>
	<rect x="736.1" y="55.5" width="5.2" height="765.1"/>
	<rect x="984.7" y="55.8" width="5.2" height="765.1"/>
	<g id="c_x5F_black">
		<rect x="89.5" y="55.2" class="st1" width="57" height="765.4"/>
		<rect x="165.5" y="55.2" class="st1" width="57" height="765.4"/>
		<rect x="242.5" y="55.2" class="st1" width="57" height="765.4"/>
		<ellipse class="st2" cx="21" cy="585" rx="0.3" ry="64"/>
		<ellipse class="st2" cx="365" cy="585" rx="0.3" ry="64"/>
		<ellipse class="st2" cx="365" cy="94" rx="0.3" ry="30"/>
		<ellipse class="st2" cx="21" cy="94" rx="0.3" ry="30"/>
		<ellipse class="st2" cx="45.5" cy="450" rx="0.3" ry="432.5"/>
		<ellipse class="st2" cx="342" cy="450" rx="0.3" ry="432.5"/>
		<rect x="34.9" y="22.1" class="st1" width="317.5" height="33.3"/>
		<rect x="35" y="820.3" class="st1" width="317.5" height="33.3"/>
		<line class="st3" x1="46" y1="569" x2="340" y2="569"/>
		<rect x="759.8" y="55.2" class="st1" width="57" height="765.4"/>
		<rect x="835.8" y="55.2" class="st1" width="57" height="765.4"/>
		<rect x="912.8" y="55.2" class="st1" width="57" height="765.4"/>
		<ellipse class="st2" cx="691.3" cy="585" rx="0.3" ry="64"/>
		<ellipse class="st2" cx="1035.3" cy="585" rx="0.3" ry="64"/>
		<ellipse class="st2" cx="1035.3" cy="94" rx="0.3" ry="30"/>
		<ellipse class="st2" cx="691.3" cy="94" rx="0.3" ry="30"/>
		<ellipse class="st2" cx="715.8" cy="450" rx="0.3" ry="432.5"/>
		<ellipse class="st2" cx="1012.3" cy="450" rx="0.3" ry="432.5"/>
		<rect x="705.2" y="22.1" class="st1" width="317.5" height="33.3"/>
		<rect x="705.3" y="820.3" class="st1" width="317.5" height="33.3"/>
		<line class="st3" x1="716.3" y1="569" x2="1010.3" y2="569"/>
	</g>
</g>
<g id="umbrella">
	<g id="u_x5F_black">
		<path class="st4" d="M207.2,403.3L853,670.8c-10.4-29.5-22.8-75.7-22.9-133.1C830,479.6,842.5,433,853,403.3L207.2,670.8
			c9.7-33.4,19.6-81.4,19-139.4C225.5,478.8,216.3,435,207.2,403.3z"/>
		<path class="st4" d="M664.7,214.2L397.2,860c29.5-10.4,75.7-22.8,133.1-22.9C588.4,837,635,849.5,664.7,860L397.2,214.2
			c33.4,9.7,81.4,19.6,139.4,19C589.2,232.5,633,223.4,664.7,214.2z"/>
	</g>
	<path class="st5" d="M208,670.7l645.8-267.5c-28.3-13.5-69.6-37.4-110.3-77.9c-41.1-41-65.2-82.8-78.8-111.2L397.2,859.9
		c-16.8-30.5-43.6-71.4-85.1-111.9C274.4,711.1,236.9,686.6,208,670.7z"/>
	<path class="st5" d="M397.2,214.1l267.5,645.8c13.5-28.3,37.4-69.6,77.9-110.3c41-41.1,82.8-65.2,111.2-78.8L208,403.2
		c30.5-16.8,71.4-43.6,111.9-85.1C356.8,280.4,381.3,242.9,397.2,214.1z"/>
</g>
<g id="rect">
	<rect id="rect_1_" class="st6" width="1071" height="899"/>
</g>
</svg>
