<?xml version="1.0" encoding="utf-8"?>
<!-- Generator: Adobe Illustrator 24.0.1, SVG Export Plug-In . SVG Version: 6.00 Build 0)  -->
<svg version="1.1" id="Layer_1" xmlns="http://www.w3.org/2000/svg" xmlns:xlink="http://www.w3.org/1999/xlink" x="0px" y="0px"
	 viewBox="0 0 288 560" style="enable-background:new 0 0 288 560;" xml:space="preserve">
<style type="text/css">
	.st0{stroke:#000000;stroke-miterlimit:10;}
	.st1{fill:none;stroke:#000000;stroke-miterlimit:10;}
</style>
<path class="st0" d="M39.71,180.64l204.79,84.82c-3.3-9.37-7.23-23.99-7.26-42.21c-0.03-18.42,3.94-33.2,7.26-42.61L39.71,265.47
	c3.07-10.6,6.23-25.8,6.01-44.19C45.53,204.58,42.62,190.68,39.71,180.64z"/>
<path class="st0" d="M184.8,120.67L99.97,325.46c9.37-3.3,23.99-7.23,42.21-7.26c18.42-0.03,33.2,3.94,42.61,7.26L99.97,120.68
	c10.6,3.07,25.8,6.23,44.19,6.01C160.85,126.49,174.75,123.58,184.8,120.67z"/>
<path class="st1" d="M39.71,180.64c0,0,43.35-17.97,60.26-59.96"/>
<path class="st1" d="M184.8,120.67c0,0,18.17,41.55,59.7,59.97"/>
<path class="st1" d="M244.5,265.46c0,0-44.43,14.14-59.7,60"/>
<path class="st1" d="M99.97,325.46c0,0-14.71-46.23-60.26-59.99"/>
</svg>
